# xmcd
#
# Track frame offsets:
#	150
#	18836
#	45047
#	70044
#	88186
#	104280
#	116270
#	135058
#	157514
#	178324
#	192481
#	210007
#
# Disc length: 3153 seconds
#
# Revision: 2
# Processed by: cddbd v1.5.2PL0 Copyright (c) Steve Scherf et al.
# Submitted via: audiograbber 1.82.02
#
DISCID=810c4f0c
DTITLE=Eva Cassidy - Live At Blues Alley
DYEAR=1996
DGENRE=Vocal
TTITLE0=Cheek To Cheek
TTITLE1=Stormy Monday
TTITLE2=Bridge Over Troubled Water
TTITLE3=Fine And Mellow
TTITLE4=People Get Ready
TTITLE5=Blue Skies
TTITLE6=Tall Trees In Georgia
TTITLE7=Fields Of Gold
TTITLE8=Autumn Leaves
TTITLE9=Honeysuckle Rose
TTITLE10=Take Me To The River
TTITLE11=What A Wonderful World
EXTD=Miguel A Rodriguez Jr
EXTT0=
EXTT1=
EXTT2=
EXTT3=
EXTT4=
EXTT5=
EXTT6=
EXTT7=
EXTT8=
EXTT9=
EXTT10=
EXTT11=
PLAYORDER=
